<svg width="128" height="128" viewBox="0 0 128 128" fill="none" xmlns="http://www.w3.org/2000/svg">
<path d="M22.0003 22L18.667 25.2V64.5334V103.867L22.1337 106.533C25.6003 109.2 27.2003 109.333 64.8003 109.333H103.867L106.534 105.867C109.2 102.4 109.334 100.8 109.334 63.2V24.1334L105.867 21.4667C102.4 18.8 100.8 18.6667 63.7337 18.6667H25.2003L22.0003 22ZM101.334 64V101.333H64.0003H26.667V64V26.6667H64.0003H101.334V64Z" fill="black"/>
<path d="M66.667 76.8L59.867 85.4667L55.2003 79.4667C52.667 76.1334 50.0003 73.3334 49.467 73.3334C47.867 73.3334 38.667 85.4667 38.667 87.6C38.667 88.9334 43.7337 89.3334 63.867 89.3334C77.867 89.3334 89.467 88.8 89.867 88.1334C90.8003 86.6667 77.2003 68.1334 75.067 68C74.267 68 70.5337 72 66.667 76.8Z" fill="black"/>
</svg>
