<svg width="128" height="128" viewBox="0 0 128 128" fill="none" xmlns="http://www.w3.org/2000/svg">
<path d="M22.3333 22.3333L19 25.5333V64.8666V104.2L22.4667 106.867C25.9333 109.533 27.5333 109.667 65.1333 109.667H104.2L106.867 106.2C109.533 102.733 109.667 101.133 109.667 63.5333V24.4666L106.2 21.8C102.733 19.1333 101.133 19 64.0667 19H25.5333L22.3333 22.3333ZM101.667 64.3333V101.667H64.3333H27V64.3333V27H64.3333H101.667V64.3333Z" fill="black"/>
<path d="M67 77.1333L60.2 85.8L55.5333 79.8C53 76.4666 50.3333 73.6666 49.8 73.6666C48.2 73.6666 39 85.8 39 87.9333C39 89.2666 44.0667 89.6666 64.2 89.6666C78.2 89.6666 89.8 89.1333 90.2 88.4666C91.1333 87 77.5333 68.4666 75.4 68.3333C74.6 68.3333 70.8667 72.3333 67 77.1333Z" fill="black"/>
</svg>
