<svg width="128" height="128" viewBox="0 0 128 128" fill="none" xmlns="http://www.w3.org/2000/svg">
<path d="M47.0665 22.8C45.7331 24.1333 46.3998 25.6 50.1331 29.7333L54.9331 34.9333L46.7998 43.2C36.1331 54 36.1331 55.8667 46.7998 67.3333C52.2665 73.0667 55.9998 76 57.9998 76C62.5331 76 77.3331 59.7333 77.3331 54.9333C77.1998 49.8667 49.4665 20.4 47.0665 22.8ZM71.9998 53.6C71.9998 54.1333 65.3331 54.6667 57.0665 54.6667H42.1331L49.9998 46.6667L57.8665 38.6667L64.9331 45.6C68.7998 49.4667 71.9998 53.0667 71.9998 53.6Z" fill="black"/>
<path d="M81.5997 65.0667C76.6664 71.8667 78.7997 78.1333 85.5997 77.0667C89.733 76.5333 90.533 68.8 86.933 64.1333L84.3997 61.0667L81.5997 65.0667Z" fill="black"/>
<path d="M32 96V101.333H63.4667H94.8L94.4 96.2667L94 91.3334L63.0667 90.9334L32 90.6667V96Z" fill="black"/>
</svg>
