<svg width="128" height="128" viewBox="0 0 128 128" fill="none" xmlns="http://www.w3.org/2000/svg">
<path d="M40.5923 19.1587C38.6814 20.684 39.6368 22.3619 44.9872 27.0903L51.8661 33.0391L40.2101 42.4961C24.9235 54.8512 24.9235 56.9866 40.2101 70.1043C48.0445 76.6632 53.3948 80.0189 56.261 80.0189C62.7579 80.0189 83.968 61.41 83.968 55.9189C83.777 50.1227 44.0317 16.4131 40.5923 19.1587ZM76.3247 54.3936C76.3247 55.0037 66.7706 55.6138 54.9235 55.6138H33.5222L44.7961 46.4619L56.07 37.31L66.1973 45.2416C71.7387 49.6651 76.3247 53.7834 76.3247 54.3936Z" fill="black"/>
<path d="M90.0826 67.5112C83.0125 75.2903 86.0698 82.4593 95.8151 81.2391C101.739 80.629 102.885 71.7821 97.7259 66.4435L94.0953 62.9353L90.0826 67.5112Z" fill="black"/>
<path d="M19 102.899V109H64.0955H109L108.427 103.204L107.854 97.5601L63.5223 97.1025L19 96.7974V102.899Z" fill="black"/>
</svg>
